<svg xmlns="http://www.w3.org/2000/svg" viewBox="0 0 100 100"><path fill="#ae92ff" fill-rule="evenodd" d="M43.48 44.41c5.83-6.24 11.67-12.48 17.51-18.7-1.84-6.79-4.98-17.43.81-23.28 5.61-5.68 15.29-.59 15.06 6.92-.2 6.64-5.19 12.84-9.13 17.77 1.2 4.17 2.27 8.4 3.56 12.55 2.98 9.65 6.01 19.81 4.3 30-1.85 10.99-9.24 20.91-19 26.23-11.19 6.09-26.44 5.54-36.47-2.61-13.13-10.69-13.03-34.39.93-44.56 6.49-4.72 14.76-4.74 22.43-4.32z m22.27-24.78c2.06-2.86 5.61-7.4 4.95-11.23-.51-2.95-4.34-2.59-5.37-.23-1.52 3.49-.36 7.95.42 11.46z m-19.21 30.37c2.05-1.57 3.78-3.95 5.54-5.84 3.61-3.87 7.22-7.73 10.85-11.6 3.07 11.4 8.55 23.53 6.72 35.57-3.04 19.9-28.31 34.19-45.46 20.58-9.95-7.88-10.3-25.54-.75-34.04 3.32-2.96 7.51-4 11.85-4.24-3.52 2.6-6.9 5.96-8.62 10.06-1.29 3.08-4.7 20.74 2.34 18.03 2.99-1.15 1.78-5.5 1.87-7.97.08-2.39.36-4.84 1.19-7.1 1.59-4.34 5.68-7.56 9.5-9.86 2.22 2.54 4.81 5.61 7.87 7.17 2.21 1.13 4.83-.81 4.4-3.24-.3-1.73-2.13-2.5-3.35-3.55-1.42-1.22-2.71-2.58-3.95-3.97z m33.23 33.58a4.91 4.91 0 1 0 9.81 0 4.91 4.91 0 1 0-9.81 0z"/></svg>
